<svg width="49" height="49" viewBox="0 0 49 49" fill="none" xmlns="http://www.w3.org/2000/svg">
<g clip-path="url(#clip0_542_836)">
<path d="M48.5 24.71C48.5 11.4551 37.7548 0.709961 24.5 0.709961C11.2452 0.709961 0.5 11.4551 0.5 24.71C0.5 36.6889 9.27641 46.6179 20.75 48.4184V31.6475H14.6562V24.71H20.75V19.4225C20.75 13.4075 24.3331 10.085 29.8152 10.085C32.4402 10.085 35.1875 10.5537 35.1875 10.5537V16.46H32.1613C29.18 16.46 28.25 18.3101 28.25 20.21V24.71H34.9062L33.8422 31.6475H28.25V48.4184C39.7236 46.6179 48.5 36.6889 48.5 24.71Z" fill="#393939"/>
</g>
<defs>
<clipPath id="clip0_542_836">
<rect width="48" height="48" fill="white" transform="translate(0.5 0.709961)"/>
</clipPath>
</defs>
</svg>
