<svg width="49" height="49" viewBox="0 0 49 49" fill="none" xmlns="http://www.w3.org/2000/svg">
<g clip-path="url(#clip0_542_838)">
<path d="M24.5 5.03184C30.9125 5.03184 31.6719 5.05996 34.1938 5.17246C36.5375 5.27559 37.8031 5.66934 38.6469 5.99746C39.7625 6.42871 40.5688 6.95371 41.4031 7.78809C42.2469 8.63184 42.7625 9.42871 43.1938 10.5443C43.5219 11.3881 43.9156 12.6631 44.0188 14.9975C44.1313 17.5287 44.1594 18.2881 44.1594 24.6912C44.1594 31.1037 44.1313 31.8631 44.0188 34.385C43.9156 36.7287 43.5219 37.9943 43.1938 38.8381C42.7625 39.9537 42.2375 40.76 41.4031 41.5943C40.5594 42.4381 39.7625 42.9537 38.6469 43.385C37.8031 43.7131 36.5281 44.1068 34.1938 44.21C31.6625 44.3225 30.9031 44.3506 24.5 44.3506C18.0875 44.3506 17.3281 44.3225 14.8063 44.21C12.4625 44.1068 11.1969 43.7131 10.3531 43.385C9.2375 42.9537 8.43125 42.4287 7.59688 41.5943C6.75313 40.7506 6.2375 39.9537 5.80625 38.8381C5.47813 37.9943 5.08438 36.7193 4.98125 34.385C4.86875 31.8537 4.84063 31.0943 4.84063 24.6912C4.84063 18.2787 4.86875 17.5193 4.98125 14.9975C5.08438 12.6537 5.47813 11.3881 5.80625 10.5443C6.2375 9.42871 6.7625 8.62246 7.59688 7.78809C8.44063 6.94434 9.2375 6.42871 10.3531 5.99746C11.1969 5.66934 12.4719 5.27559 14.8063 5.17246C17.3281 5.05996 18.0875 5.03184 24.5 5.03184ZM24.5 0.709961C17.9844 0.709961 17.1688 0.738086 14.6094 0.850586C12.0594 0.963086 10.3063 1.37559 8.7875 1.96621C7.20312 2.58496 5.8625 3.40059 4.53125 4.74121C3.19063 6.07246 2.375 7.41309 1.75625 8.98809C1.16562 10.5162 0.753125 12.26 0.640625 14.81C0.528125 17.3787 0.5 18.1943 0.5 24.71C0.5 31.2256 0.528125 32.0412 0.640625 34.6006C0.753125 37.1506 1.16562 38.9037 1.75625 40.4225C2.375 42.0068 3.19063 43.3475 4.53125 44.6787C5.8625 46.01 7.20313 46.835 8.77813 47.4443C10.3063 48.035 12.05 48.4475 14.6 48.56C17.1594 48.6725 17.975 48.7006 24.4906 48.7006C31.0063 48.7006 31.8219 48.6725 34.3813 48.56C36.9313 48.4475 38.6844 48.035 40.2031 47.4443C41.7781 46.835 43.1188 46.01 44.45 44.6787C45.7812 43.3475 46.6063 42.0068 47.2156 40.4318C47.8063 38.9037 48.2188 37.16 48.3313 34.61C48.4438 32.0506 48.4719 31.235 48.4719 24.7193C48.4719 18.2037 48.4438 17.3881 48.3313 14.8287C48.2188 12.2787 47.8063 10.5256 47.2156 9.00684C46.625 7.41309 45.8094 6.07246 44.4688 4.74121C43.1375 3.40996 41.7969 2.58496 40.2219 1.97559C38.6938 1.38496 36.95 0.972461 34.4 0.859961C31.8313 0.738086 31.0156 0.709961 24.5 0.709961Z" fill="#393939"/>
<path d="M24.5 12.3818C17.6938 12.3818 12.1719 17.9037 12.1719 24.71C12.1719 31.5162 17.6938 37.0381 24.5 37.0381C31.3062 37.0381 36.8281 31.5162 36.8281 24.71C36.8281 17.9037 31.3062 12.3818 24.5 12.3818ZM24.5 32.7068C20.0844 32.7068 16.5031 29.1256 16.5031 24.71C16.5031 20.2943 20.0844 16.7131 24.5 16.7131C28.9156 16.7131 32.4969 20.2943 32.4969 24.71C32.4969 29.1256 28.9156 32.7068 24.5 32.7068Z" fill="#393939"/>
<path d="M40.1937 11.8942C40.1937 13.488 38.9 14.7724 37.3156 14.7724C35.7219 14.7724 34.4375 13.4786 34.4375 11.8942C34.4375 10.3005 35.7313 9.01611 37.3156 9.01611C38.9 9.01611 40.1937 10.3099 40.1937 11.8942Z" fill="#393939"/>
</g>
<defs>
<clipPath id="clip0_542_838">
<rect width="48" height="48" fill="white" transform="translate(0.5 0.709961)"/>
</clipPath>
</defs>
</svg>
