<svg width="132" height="18" viewBox="0 0 132 18" fill="none" xmlns="http://www.w3.org/2000/svg">
<path d="M6.04492 13.7109C6.68359 13.7109 7.20215 13.6406 7.60059 13.5C8.35644 13.2305 8.73437 12.7295 8.73437 11.9971C8.73437 11.5693 8.54687 11.2383 8.17187 11.0039C7.79687 10.7754 7.20801 10.5732 6.40527 10.3975L5.03418 10.0898C3.68652 9.78515 2.75488 9.4541 2.23926 9.09668C1.36621 8.49902 0.929687 7.56445 0.929687 6.29297C0.929687 5.13281 1.35156 4.16894 2.19531 3.40137C3.03906 2.63379 4.27832 2.25 5.91309 2.25C7.27832 2.25 8.44141 2.61328 9.40234 3.33984C10.3691 4.06055 10.876 5.10937 10.9229 6.48633H8.32129C8.27441 5.70703 7.93457 5.15332 7.30176 4.82519C6.87988 4.6084 6.35547 4.5 5.72852 4.5C5.03125 4.5 4.47461 4.64062 4.05859 4.92187C3.64258 5.20312 3.43457 5.5957 3.43457 6.09961C3.43457 6.5625 3.63965 6.9082 4.0498 7.13672C4.31348 7.28906 4.87598 7.46777 5.7373 7.67285L7.96973 8.20898C8.94824 8.44336 9.68652 8.75683 10.1846 9.14941C10.958 9.75879 11.3447 10.6406 11.3447 11.7949C11.3447 12.9785 10.8906 13.9629 9.98242 14.748C9.08008 15.5273 7.80273 15.917 6.15039 15.917C4.46289 15.917 3.13574 15.5332 2.16895 14.7656C1.20215 13.9922 0.71875 12.9316 0.71875 11.584H3.30273C3.38477 12.1758 3.5459 12.6182 3.78613 12.9111C4.22559 13.4443 4.97852 13.7109 6.04492 13.7109Z" fill="#393939"/>
<path d="M35.4742 15.583V9.7998H30.4117V15.583H27.7311V2.62793H30.4117V7.56738H35.4742V2.62793H38.1637V15.583H35.4742Z" fill="#393939"/>
<path d="M99.4779 10.5029H96.683V15.583H94.0375V2.62793H100.392C101.3 2.64551 101.997 2.75684 102.484 2.96191C102.976 3.16699 103.392 3.46875 103.732 3.86719C104.013 4.19531 104.236 4.55859 104.4 4.95703C104.564 5.35547 104.646 5.80957 104.646 6.31934C104.646 6.93457 104.491 7.54101 104.18 8.13867C103.87 8.73047 103.357 9.14941 102.642 9.39551C103.24 9.63574 103.662 9.97851 103.908 10.4238C104.16 10.8633 104.286 11.5371 104.286 12.4453V13.3154C104.286 13.9072 104.309 14.3086 104.356 14.5195C104.426 14.8535 104.59 15.0996 104.848 15.2578V15.583H101.869C101.787 15.2959 101.728 15.0645 101.693 14.8887C101.622 14.5254 101.584 14.1533 101.578 13.7725L101.561 12.5684C101.549 11.7422 101.397 11.1914 101.104 10.916C100.817 10.6406 100.275 10.5029 99.4779 10.5029ZM101.121 8.14746C101.661 7.90137 101.93 7.41504 101.93 6.68848C101.93 5.90332 101.669 5.37598 101.148 5.10644C100.855 4.9541 100.415 4.87793 99.8295 4.87793H96.683V8.3584H99.7504C100.36 8.3584 100.817 8.28808 101.121 8.14746Z" fill="#393939"/>
<path d="M130.401 9.92285H124.108V13.2539H131.28V15.583H121.463V2.62793H130.964V4.92187H124.108V7.67285H130.401V9.92285Z" fill="#393939"/>
<path d="M62.1539 13.5C62.1539 12.93 61.9289 12.42 61.5764 12.03L64.6889 6.6825C64.8614 6.72 65.0339 6.75 65.2139 6.75C65.3939 6.75 65.5664 6.72 65.7389 6.6825L68.8214 11.97C68.4464 12.375 68.2139 12.9075 68.2139 13.5C68.2139 14.745 69.2189 15.75 70.4639 15.75C71.7089 15.75 72.7139 14.745 72.7139 13.5C72.7139 12.255 71.7089 11.25 70.4639 11.25C70.2839 11.25 70.1114 11.28 69.9389 11.3175L66.8564 6.03C67.2314 5.625 67.4639 5.0925 67.4639 4.5C67.4639 3.255 66.4589 2.25 65.2139 2.25C63.9689 2.25 62.9639 3.255 62.9639 4.5C62.9639 5.0925 63.1964 5.625 63.5714 6.03L60.4514 11.37C60.2939 11.3325 60.1289 11.31 59.9639 11.31C58.7564 11.31 57.7739 12.2925 57.7739 13.5C57.7739 14.7075 58.7564 15.69 59.9639 15.69C61.1714 15.69 62.1539 14.7075 62.1539 13.5ZM71.2139 13.5C71.2139 13.9125 70.8764 14.25 70.4639 14.25C70.0514 14.25 69.7139 13.9125 69.7139 13.5C69.7139 13.0875 70.0514 12.75 70.4639 12.75C70.8764 12.75 71.2139 13.0875 71.2139 13.5ZM64.4639 4.5C64.4639 4.0875 64.8014 3.75 65.2139 3.75C65.6264 3.75 65.9639 4.0875 65.9639 4.5C65.9639 4.9125 65.6264 5.25 65.2139 5.25C64.8014 5.25 64.4639 4.9125 64.4639 4.5ZM59.1989 13.5C59.1989 13.0875 59.5364 12.75 59.9489 12.75C60.3614 12.75 60.6989 13.0875 60.6989 13.5C60.6989 13.9125 60.3614 14.25 59.9489 14.25C59.5364 14.25 59.1989 13.9125 59.1989 13.5Z" fill="black"/>
</svg>
