<svg width="205" height="41" viewBox="0 0 205 41" fill="none" xmlns="http://www.w3.org/2000/svg">
<path d="M1.1228 0.72998H35.2778L35.6025 11.003H34.156C33.4475 7.77549 32.5422 5.67955 31.4401 4.71522C30.3577 3.73121 28.065 3.23921 24.5619 3.23921H21.1966V34.1765C21.1966 36.5184 21.5607 37.9748 22.2888 38.5455C23.017 39.0965 24.6111 39.4606 27.0711 39.6377V40.73H9.44752V39.6377C12.0059 39.4409 13.6 39.0178 14.2298 38.3684C14.8596 37.7189 15.1745 36.0855 15.1745 33.468V3.23921H11.8091C8.46351 3.23921 6.18061 3.72137 4.96044 4.6857C3.75994 5.65003 2.85466 7.75581 2.24457 11.003H0.768555L1.1228 0.72998Z" fill="#757575"/>
<path d="M35.4573 39.6377C37.8189 39.3819 39.2949 38.9489 39.8853 38.3388C40.4757 37.7091 40.7709 36.0855 40.7709 33.468V7.28349C40.7709 5.11866 40.4364 3.71153 39.7672 3.06208C39.1178 2.41264 37.6811 2.00919 35.4573 1.85175V0.72998H52.2543V1.85175C50.0304 2.00919 48.584 2.41264 47.9148 3.06208C47.2457 3.71153 46.9111 5.11866 46.9111 7.28349V19.0621H65.2432V7.28349C65.2432 5.11866 64.9185 3.71153 64.2691 3.06208C63.6196 2.41264 62.1731 2.00919 59.9296 1.85175V0.72998H76.7266V1.85175C74.5028 2.00919 73.0563 2.41264 72.3871 3.06208C71.7377 3.71153 71.413 5.11866 71.413 7.28349V34.1765C71.413 36.3807 71.7377 37.7976 72.3871 38.4274C73.0563 39.0375 74.5028 39.4409 76.7266 39.6377V40.73H59.9296V39.6377C62.3109 39.4016 63.7869 38.9686 64.3576 38.3388C64.948 37.7091 65.2432 36.0855 65.2432 33.468V21.7189H46.9111V34.1765C46.9111 36.3807 47.2457 37.7976 47.9148 38.4274C48.584 39.0572 50.0304 39.4606 52.2543 39.6377V40.73H35.4573V39.6377Z" fill="#757575"/>
<path d="M93.9984 0.72998V1.85175C92.5814 1.81239 91.5187 1.92063 90.8102 2.17647C90.1017 2.43232 89.7474 2.98336 89.7474 3.82961C89.7474 4.08545 89.8065 4.41018 89.9246 4.80378C90.0426 5.1777 90.3083 5.67955 90.7216 6.30932L99.6663 19.7411L108.345 6.10267C108.699 5.53195 108.926 5.05962 109.024 4.6857C109.142 4.31178 109.201 4.03625 109.201 3.85913C109.201 2.9932 108.739 2.42248 107.814 2.14695C107.263 1.96983 106.318 1.87143 104.98 1.85175V0.72998H118.205V1.85175C116.985 1.91079 115.893 2.27488 114.928 2.944C113.433 3.98705 111.75 5.92555 109.88 8.7595L100.936 22.3979V34.1765C100.936 36.5184 101.31 37.9846 102.057 38.575C102.825 39.1457 104.527 39.5 107.164 39.6377V40.73H88.6847V39.6377C91.4203 39.4803 93.1128 39.0768 93.7622 38.4274C94.4313 37.7583 94.7659 36.1051 94.7659 33.468V22.9588L86.8545 11.3573C84.1189 7.36221 82.2001 4.80378 81.098 3.68201C79.9959 2.54056 78.6577 1.93047 77.0832 1.85175V0.72998H93.9984Z" fill="#757575"/>
<path d="M117.706 39.6377C120.205 39.3819 121.809 38.821 122.517 37.9551C123.226 37.0695 123.58 35.0326 123.58 31.8444V7.28349C123.58 5.09898 123.236 3.68201 122.547 3.03256C121.858 2.36344 120.293 1.96983 117.853 1.85175V0.72998H129.809L143.801 31.2244L157.174 0.72998H169.218V1.85175C166.975 2.00919 165.528 2.42248 164.879 3.0916C164.23 3.74105 163.905 5.13834 163.905 7.28349V34.1765C163.905 36.3807 164.23 37.7976 164.879 38.4274C165.528 39.0375 166.975 39.4409 169.218 39.6377V40.73H152.274V39.6377C154.714 39.4409 156.23 39.008 156.82 38.3388C157.43 37.65 157.735 36.0264 157.735 33.468V6.30932L142.266 40.73H141.44L126.237 7.72629V31.8444C126.237 35.1506 126.719 37.3056 127.683 38.3093C128.313 38.9588 129.72 39.4016 131.905 39.6377V40.73H117.706V39.6377Z" fill="#757575"/>
<path d="M169.073 39.6377C171.297 39.4016 172.734 39.008 173.383 38.4569C174.052 37.8862 174.387 36.4594 174.387 34.1765V7.28349C174.387 5.13834 174.062 3.74105 173.413 3.0916C172.763 2.42248 171.317 2.00919 169.073 1.85175V0.72998H201.191L201.398 9.40895H199.863C199.351 6.73244 198.584 5.00058 197.56 4.21338C196.537 3.42617 194.254 3.03256 190.712 3.03256H182.505C181.619 3.03256 181.068 3.18017 180.852 3.47537C180.655 3.75089 180.557 4.28226 180.557 5.06946V18.5602H189.855C192.434 18.5602 194.077 18.1765 194.785 17.4089C195.494 16.6414 196.065 15.0867 196.498 12.7447H197.915V26.7374H196.498C196.045 24.3954 195.464 22.8505 194.756 22.1027C194.047 21.3351 192.414 20.9514 189.855 20.9514H180.557V35.9182C180.557 37.1187 180.931 37.8272 181.678 38.0436C182.446 38.2601 184.719 38.3684 188.498 38.3684C192.591 38.3684 195.612 37.9256 197.56 37.0399C199.509 36.1347 201.26 33.96 202.815 30.516H204.498L201.752 40.73H169.073V39.6377Z" fill="#757575"/>
</svg>
