<svg width="49" height="49" viewBox="0 0 49 49" fill="none" xmlns="http://www.w3.org/2000/svg">
<g clip-path="url(#clip0_542_837)">
<path d="M15.6003 44.2099C33.7091 44.2099 43.6166 29.2034 43.6166 16.1937C43.6166 15.7718 43.6072 15.3406 43.5884 14.9187C45.5158 13.5249 47.179 11.7985 48.5 9.82056C46.705 10.6192 44.7993 11.1407 42.8478 11.3674C44.9026 10.1358 46.4411 8.2009 47.1781 5.92149C45.2451 7.06708 43.1312 7.87518 40.9269 8.31118C39.4417 6.73308 37.478 5.68819 35.3394 5.33806C33.2008 4.98793 31.0064 5.35206 29.0955 6.37415C27.1846 7.39625 25.6636 9.01937 24.7677 10.9926C23.8718 12.9658 23.6509 15.1792 24.1391 17.2906C20.225 17.0941 16.3959 16.0774 12.9 14.3062C9.40405 12.5349 6.31939 10.0488 3.84594 7.00899C2.5888 9.17645 2.20411 11.7413 2.77006 14.1821C3.33601 16.623 4.81013 18.7569 6.89281 20.1499C5.32926 20.1003 3.79995 19.6793 2.43125 18.9218V19.0437C2.42985 21.3183 3.2162 23.5231 4.65662 25.2835C6.09704 27.0439 8.10265 28.2511 10.3325 28.6999C8.88411 29.0962 7.36396 29.154 5.88969 28.8687C6.51891 30.8248 7.74315 32.5357 9.39154 33.7626C11.0399 34.9895 13.0302 35.6712 15.0847 35.7124C11.5968 38.4522 7.28835 39.9382 2.85313 39.9312C2.06657 39.93 1.2808 39.8818 0.5 39.7868C5.00571 42.6775 10.2471 44.2127 15.6003 44.2099Z" fill="#393939"/>
</g>
<defs>
<clipPath id="clip0_542_837">
<rect width="48" height="48" fill="white" transform="translate(0.5 0.709961)"/>
</clipPath>
</defs>
</svg>
