<svg fill="none" height="34" viewBox="0 0 85 34" width="85" xmlns="http://www.w3.org/2000/svg"><path d="m.242188.0898438h5.414062v21.2519562h12.83205v4.6582h-18.246112zm37.582012 9.1757762c1.6172 2.02738 2.4258 4.42388 2.4258 7.18948 0 2.8125-.8086 5.2207-2.4258 7.2246-1.6172 1.9922-4.0722 2.9883-7.3652 2.9883s-5.7481-.9961-7.3652-2.9883c-1.6172-2.0039-2.4258-4.4121-2.4258-7.2246 0-2.7656.8086-5.1621 2.4258-7.18948 1.6171-2.02734 4.0722-3.04101 7.3652-3.04101s5.748 1.01367 7.3652 3.04101zm-7.3828 1.19528c-1.4648 0-2.5957.5215-3.3926 1.5645-.7851 1.0312-1.1777 2.5078-1.1777 4.4297s.3926 3.4043 1.1777 4.4472c.7969 1.043 1.9278 1.5645 3.3926 1.5645s2.5898-.5215 3.375-1.5645c.7852-1.0429 1.1777-2.5253 1.1777-4.4472s-.3925-3.3985-1.1777-4.4297c-.7852-1.043-1.9102-1.5645-3.375-1.5645zm18.8262 18.8965c.539.4571 1.4472.6856 2.7246.6856 1.8047 0 3.0117-.6035 3.6211-1.8106.3984-.7734.5976-2.0742.5976-3.9023v-1.2305c-.4804.8203-.9961 1.4356-1.5468 1.8457-.9961.7617-2.2911 1.1426-3.8848 1.1426-2.4609 0-4.4297-.8613-5.9063-2.584-1.4648-1.7344-2.1972-4.0781-2.1972-7.0312 0-2.8477.709-5.2383 2.1269-7.17192 1.418-1.94531 3.4278-2.91797 6.0293-2.91797.961 0 1.7989.14649 2.5137.43946 1.2188.5039 2.2031 1.42968 2.9531 2.77734v-2.75977h4.8692v18.17576c0 2.4727-.416 4.336-1.2481 5.5899-1.4297 2.1562-4.1719 3.2343-8.2265 3.2343-2.4493 0-4.4473-.4804-5.9942-1.4414-1.5469-.9609-2.4023-2.3964-2.5664-4.3066h5.4492c.1407.5859.3692 1.0078.6856 1.2656zm-.8438-9.8965c.6797 1.6172 1.8985 2.4258 3.6563 2.4258 1.1719 0 2.1621-.4394 2.9707-1.3183.8086-.8907 1.2129-2.3028 1.2129-4.2364 0-1.8164-.3867-3.1992-1.1602-4.1484-.7617-.9492-1.7871-1.4238-3.0762-1.4238-1.7578 0-2.9707.8261-3.6386 2.4785-.3516.8789-.5274 1.9629-.5274 3.2519 0 1.1133.1875 2.1036.5625 2.9707zm33.416-10.19528c1.6172 2.02738 2.4258 4.42388 2.4258 7.18948 0 2.8125-.8086 5.2207-2.4258 7.2246-1.6171 1.9922-4.0722 2.9883-7.3652 2.9883s-5.748-.9961-7.3652-2.9883c-1.6172-2.0039-2.4258-4.4121-2.4258-7.2246 0-2.7656.8086-5.1621 2.4258-7.18948 1.6172-2.02734 4.0722-3.04101 7.3652-3.04101s5.7481 1.01367 7.3652 3.04101zm-7.3828 1.19528c-1.4648 0-2.5957.5215-3.3925 1.5645-.7852 1.0312-1.1778 2.5078-1.1778 4.4297s.3926 3.4043 1.1778 4.4472c.7968 1.043 1.9277 1.5645 3.3925 1.5645 1.4649 0 2.5899-.5215 3.375-1.5645.7852-1.0429 1.1778-2.5253 1.1778-4.4472s-.3926-3.3985-1.1778-4.4297c-.7851-1.043-1.9101-1.5645-3.375-1.5645z" fill="#393939"/></svg>